<svg xmlns="http://www.w3.org/2000/svg" width="1200" height="720" viewBox="0 0 1200 720">
<rect width="1200" height="720" rx="42" fill="#F3EFE7"/>
<path d="M0 0h18v720H0z" fill="#17142C"/>
<circle cx="425" cy="92" r="38" fill="#FF6B57"/>
<text x="72" y="92" font-family="Arial, sans-serif" font-size="13" font-weight="700" letter-spacing="2.3" fill="#17142C">CREATOR STUDIO</text>
<text x="72" y="166" font-family="Arial, sans-serif" font-size="56" font-weight="800" letter-spacing="-3" fill="#17142C">MAKE IT</text>
<text x="72" y="225" font-family="Arial, sans-serif" font-size="56" font-weight="800" letter-spacing="-3" fill="#17142C">MEMORABLE.</text>
<text x="72" y="284" font-family="Arial, sans-serif" font-size="13" font-weight="700" letter-spacing="1.4" fill="#81798A">INPUT FEATURE BRIEF</text>
<text x="72" y="314" font-family="Arial, sans-serif" font-size="16" fill="#615B6A">One context. Six named benefits.</text>
<circle cx="77" cy="385" r="5" fill="#17142C"/>
<text x="90" y="390" font-family="Arial, sans-serif" font-size="14" font-weight="700" fill="#615B6A">Idea Spark</text>
<circle cx="251" cy="385" r="5" fill="#17142C"/>
<text x="264" y="390" font-family="Arial, sans-serif" font-size="14" font-weight="700" fill="#615B6A">Visual Compose</text>
<circle cx="77" cy="427" r="5" fill="#17142C"/>
<text x="90" y="432" font-family="Arial, sans-serif" font-size="14" font-weight="700" fill="#615B6A">Brand System</text>
<circle cx="251" cy="427" r="5" fill="#17142C"/>
<text x="264" y="432" font-family="Arial, sans-serif" font-size="14" font-weight="700" fill="#615B6A">Smart Export</text>
<circle cx="77" cy="469" r="5" fill="#17142C"/>
<text x="90" y="474" font-family="Arial, sans-serif" font-size="14" font-weight="700" fill="#615B6A">Asset Library</text>
<circle cx="251" cy="469" r="5" fill="#17142C"/>
<text x="264" y="474" font-family="Arial, sans-serif" font-size="14" font-weight="700" fill="#615B6A">Launch Story</text>
<path d="M72 540h312" stroke="#D2C9BC" stroke-width="2"/>
<text x="72" y="580" font-family="Arial, sans-serif" font-size="13" font-weight="700" letter-spacing="1.4" fill="#81798A">ACTUAL VERIFIED OUTPUTS →</text>
<circle cx="83" cy="652" r="11" fill="#17142C"/>
<circle cx="115" cy="652" r="11" fill="#FF6B57"/>
<rect x="500" y="72" width="184" height="238" rx="26" fill="#FFFDF8" stroke="#DDD6CB"/>
<text x="520" y="96" font-family="Arial, sans-serif" font-size="10" font-weight="700" fill="#9A92A5">01</text>
<svg xmlns="http://www.w3.org/2000/svg" viewBox="0 0 48 48" fill="none" stroke="#17142C" stroke-width="2.5" stroke-linecap="round" stroke-linejoin="round" x="543" y="106" width="98" height="98"><circle cx="24" cy="20" r="16" fill="#FF6B57" stroke="none"/>
    <path d="M15 20a9 9 0 1 1 18 0c0 4-2 6-4.5 8.5L27 30v4h-6v-4l-1.5-1.5C17 26 15 24 15 20Z" fill="#FFF8E8"/>
    <path d="M20 38h8M24 4V1M9 9 6 6M39 9l3-3M8 22H4M44 22h-4"/>
    <path d="m24 13 2.2 4.7 5.1.6-3.8 3.5 1 5-4.5-2.5-4.5 2.5 1-5-3.8-3.5 5.1-.6Z" fill="#FF6B57" stroke="none"/></svg>
<text x="592" y="270" text-anchor="middle" font-family="Arial, sans-serif" font-size="14" font-weight="700" fill="#242038">Idea Spark</text>
<circle cx="592" cy="290" r="3" fill="#FF6B57"/>
<rect x="720" y="72" width="184" height="238" rx="26" fill="#FFFDF8" stroke="#DDD6CB"/>
<text x="740" y="96" font-family="Arial, sans-serif" font-size="10" font-weight="700" fill="#9A92A5">02</text>
<svg xmlns="http://www.w3.org/2000/svg" viewBox="0 0 48 48" fill="none" stroke="#17142C" stroke-width="2.5" stroke-linecap="round" stroke-linejoin="round" x="763" y="106" width="98" height="98"><rect x="6" y="8" width="28" height="28" rx="6" fill="#FFF8E8"/>
    <path d="M12 27c6-10 11-11 17-11M12 31h16"/>
    <circle cx="13" cy="15" r="3" fill="#FF6B57" stroke="none"/>
    <path d="m29 24 13 5-6 3 3 7-4 2-3-7-5 5Z" fill="#FF6B57"/></svg>
<text x="812" y="270" text-anchor="middle" font-family="Arial, sans-serif" font-size="14" font-weight="700" fill="#242038">Visual Compose</text>
<circle cx="812" cy="290" r="3" fill="#FF6B57"/>
<rect x="940" y="72" width="184" height="238" rx="26" fill="#FFFDF8" stroke="#DDD6CB"/>
<text x="960" y="96" font-family="Arial, sans-serif" font-size="10" font-weight="700" fill="#9A92A5">03</text>
<svg xmlns="http://www.w3.org/2000/svg" viewBox="0 0 48 48" fill="none" stroke="#17142C" stroke-width="2.5" stroke-linecap="round" stroke-linejoin="round" x="983" y="106" width="98" height="98"><circle cx="17" cy="17" r="10" fill="#FFF8E8"/>
    <rect x="23" y="11" width="18" height="18" rx="5" fill="#FF6B57"/>
    <path d="m14 39 10-17 10 17Z" fill="#FFF8E8"/>
    <path d="M7 34h8M33 7h8"/></svg>
<text x="1032" y="270" text-anchor="middle" font-family="Arial, sans-serif" font-size="14" font-weight="700" fill="#242038">Brand System</text>
<circle cx="1032" cy="290" r="3" fill="#FF6B57"/>
<rect x="500" y="358" width="184" height="238" rx="26" fill="#FFFDF8" stroke="#DDD6CB"/>
<text x="520" y="382" font-family="Arial, sans-serif" font-size="10" font-weight="700" fill="#9A92A5">04</text>
<svg xmlns="http://www.w3.org/2000/svg" viewBox="0 0 48 48" fill="none" stroke="#17142C" stroke-width="2.5" stroke-linecap="round" stroke-linejoin="round" x="543" y="392" width="98" height="98"><path d="M8 16h25v24H8z" fill="#FFF8E8"/>
    <path d="M14 16V9h25v24h-6"/>
    <path d="M21 28h18m-6-6 6 6-6 6"/>
    <path d="m12 7 1.5 3L17 12l-3.5 2L12 17l-1.5-3L7 12l3.5-2Z" fill="#FF6B57" stroke="none"/></svg>
<text x="592" y="556" text-anchor="middle" font-family="Arial, sans-serif" font-size="14" font-weight="700" fill="#242038">Smart Export</text>
<circle cx="592" cy="576" r="3" fill="#FF6B57"/>
<rect x="720" y="358" width="184" height="238" rx="26" fill="#FFFDF8" stroke="#DDD6CB"/>
<text x="740" y="382" font-family="Arial, sans-serif" font-size="10" font-weight="700" fill="#9A92A5">05</text>
<svg xmlns="http://www.w3.org/2000/svg" viewBox="0 0 48 48" fill="none" stroke="#17142C" stroke-width="2.5" stroke-linecap="round" stroke-linejoin="round" x="763" y="392" width="98" height="98"><path d="M6 13h15l4 5h17v23H6z" fill="#FFF8E8"/>
    <rect x="11" y="24" width="8" height="7" rx="2" fill="#FF6B57"/>
    <rect x="23" y="24" width="8" height="7" rx="2"/>
    <rect x="11" y="34" width="8" height="4" rx="2"/>
    <rect x="23" y="34" width="13" height="4" rx="2" fill="#FF6B57"/></svg>
<text x="812" y="556" text-anchor="middle" font-family="Arial, sans-serif" font-size="14" font-weight="700" fill="#242038">Asset Library</text>
<circle cx="812" cy="576" r="3" fill="#FF6B57"/>
<rect x="940" y="358" width="184" height="238" rx="26" fill="#FFFDF8" stroke="#DDD6CB"/>
<text x="960" y="382" font-family="Arial, sans-serif" font-size="10" font-weight="700" fill="#9A92A5">06</text>
<svg xmlns="http://www.w3.org/2000/svg" viewBox="0 0 48 48" fill="none" stroke="#17142C" stroke-width="2.5" stroke-linecap="round" stroke-linejoin="round" x="983" y="392" width="98" height="98"><path d="m6 25 35-14-10 31-7-11-11 5 4-12Z" fill="#FFF8E8"/>
    <path d="m17 24 24-13-17 20"/>
    <circle cx="8" cy="10" r="3" fill="#FF6B57" stroke="none"/>
    <path d="M5 17H1M14 6l3-3"/></svg>
<text x="1032" y="556" text-anchor="middle" font-family="Arial, sans-serif" font-size="14" font-weight="700" fill="#242038">Launch Story</text>
<circle cx="1032" cy="576" r="3" fill="#FF6B57"/>
</svg>
